CddbId:b90fee63:[150, 903, 2888, 6329, 10349, 13518, 16660, 19725, 22685, 26266, 29456, 32925, 35524, 38993, 42239, 45179, 48355, 51239, 53837, 57481, 60775, 63569, 65923, 69469, 71977, 75077, 78894, 82203, 84996, 88061, 91440, 94331, 97082, 100001, 103428, 106201, 109126, 112087, 115096, 118008, 120829, 123769, 126994, 130073, 133034, 135813, 138718, 140947, 143392, 146262, 149836, 152204, 155081, 157456, 160354, 163719, 166874, 170044, 172914, 176376, 180249, 184512, 187299, 190545, 193714, 197636, 200973, 204386, 207556, 211464, 214417, 217002, 220492, 223961, 227367, 230439, 233309, 236506, 239794, 244037, 246217, 248962, 251455, 253678, 257286, 260267, 264391, 269456, 273203, 275913, 279152, 282461, 286028, 289176, 292513, 295961, 299709, 302460, 304244]:306000:74:b90fee63 99 150 903 2888 6329 10349 13518 16660 19725 22685 26266 29456 32925 35524 38993 42239 45179 48355 51239 53837 57481 60775 63569 65923 69469 71977 75077 78894 82203 84996 88061 91440 94331 97082 100001 103428 106201 109126 112087 115096 118008 120829 123769 126994 130073 133034 135813 138718 140947 143392 146262 149836 152204 155081 157456 160354 163719 166874 170044 172914 176376 180249 184512 187299 190545 193714 197636 200973 204386 207556 211464 214417 217002 220492 223961 227367 230439 233309 236506 239794 244037 246217 248962 251455 253678 257286 260267 264391 269456 273203 275913 279152 282461 286028 289176 292513 295961 299709 302460 304244 4080: 99 0 0 0 0 0 0 0 0 0 0 0 0 0 0 0 0 0 0 0 0 0 0 0 0 0 0 0 0 0 0 0 0 0 0 0 0 0 0 0 0 0 0 0 0 0 0 0 0 0 0 0 0 0 0 0 0 0 0 0 0 0 0 0 0 0 0 0 0 0 0 0 0 0 0 0 0 0 0 0 0 0 0 0 0 0 0 0 0 0 0 0 0 0 0 0 0 0 0 0 4080
num_tracks: 99
offsets: [150, 903, 2888, 6329, 10349, 13518, 16660, 19725, 22685, 26266, 29456, 32925, 35524, 38993, 42239, 45179, 48355, 51239, 53837, 57481, 60775, 63569, 65923, 69469, 71977, 75077, 78894, 82203, 84996, 88061, 91440, 94331, 97082, 100001, 103428, 106201, 109126, 112087, 115096, 118008, 120829, 123769, 126994, 130073, 133034, 135813, 138718, 140947, 143392, 146262, 149836, 152204, 155081, 157456, 160354, 163719, 166874, 170044, 172914, 176376, 180249, 184512, 187299, 190545, 193714, 197636, 200973, 204386, 207556, 211464, 214417, 217002, 220492, 223961, 227367, 230439, 233309, 236506, 239794, 244037, 246217, 248962, 251455, 253678, 257286, 260267, 264391, 269456, 273203, 275913, 279152, 282461, 286028, 289176, 292513, 295961, 299709, 302460, 304244]
extents: [0, 0, 0, 0, 0, 0, 0, 0, 0, 0, 0, 0, 0, 0, 0, 0, 0, 0, 0, 0, 0, 0, 0, 0, 0, 0, 0, 0, 0, 0, 0, 0, 0, 0, 0, 0, 0, 0, 0, 0, 0, 0, 0, 0, 0, 0, 0, 0, 0, 0, 0, 0, 0, 0, 0, 0, 0, 0, 0, 0, 0, 0, 0, 0, 0, 0, 0, 0, 0, 0, 0, 0, 0, 0, 0, 0, 0, 0, 0, 0, 0, 0, 0, 0, 0, 0, 0, 0, 0, 0, 0, 0, 0, 0, 0, 0, 0, 0, 0]
total_length: 4080
cddb: [3104829027, 99, 150, 903, 2888, 6329, 10349, 13518, 16660, 19725, 22685, 26266, 29456, 32925, 35524, 38993, 42239, 45179, 48355, 51239, 53837, 57481, 60775, 63569, 65923, 69469, 71977, 75077, 78894, 82203, 84996, 88061, 91440, 94331, 97082, 100001, 103428, 106201, 109126, 112087, 115096, 118008, 120829, 123769, 126994, 130073, 133034, 135813, 138718, 140947, 143392, 146262, 149836, 152204, 155081, 157456, 160354, 163719, 166874, 170044, 172914, 176376, 180249, 184512, 187299, 190545, 193714, 197636, 200973, 204386, 207556, 211464, 214417, 217002, 220492, 223961, 227367, 230439, 233309, 236506, 239794, 244037, 246217, 248962, 251455, 253678, 257286, 260267, 264391, 269456, 273203, 275913, 279152, 282461, 286028, 289176, 292513, 295961, 299709, 302460, 304244, 4080]
musicbrainz: ('99 150 903 2888 6329 10349 13518 16660 19725 22685 26266 29456 32925 35524 38993 42239 45179 48355 51239 53837 57481 60775 63569 65923 69469 71977 75077 78894 82203 84996 88061 91440 94331 97082 100001 103428 106201 109126 112087 115096 118008 120829 123769 126994 130073 133034 135813 138718 140947 143392 146262 149836 152204 155081 157456 160354 163719 166874 170044 172914 176376 180249 184512 187299 190545 193714 197636 200973 204386 207556 211464 214417 217002 220492 223961 227367 230439 233309 236506 239794 244037 246217 248962 251455 253678 257286 260267 264391 269456 273203 275913 279152 282461 286028 289176 292513 295961 299709 302460 304244 306000', 'wBIajx0Xg_pE7DjCkM1CJV8p6B4-')

CD record:
Device type    : Removable CD-ROM
Version        : 0
Response Format: 2
Capabilities   : 
Vendor_info    : 'FREECOM_'
Identification : 'DVD+/-RW16H4    '
Revision       : 'FR00'
Device seems to be: Generic mmc2 DVD-R/DVD-RW.
Using generic SCSI-3/mmc   CD-R/CD-RW driver (mmc_cdr).
Driver flags   : MMC-3 SWABAUDIO BURNFREE 
Supported modes: TAO PACKET SAO SAO/R96R RAW/R96R
first: 1 last 99
track:   1 lba:         0 (        0) 00:02:00 adr: 1 control: 0 mode: -1
track:   2 lba:       753 (     3012) 00:12:03 adr: 1 control: 0 mode: -1
track:   3 lba:      2738 (    10952) 00:38:38 adr: 1 control: 0 mode: -1
track:   4 lba:      6179 (    24716) 01:24:29 adr: 1 control: 0 mode: -1
track:   5 lba:     10199 (    40796) 02:17:74 adr: 1 control: 0 mode: -1
track:   6 lba:     13368 (    53472) 03:00:18 adr: 1 control: 0 mode: -1
track:   7 lba:     16510 (    66040) 03:42:10 adr: 1 control: 0 mode: -1
track:   8 lba:     19575 (    78300) 04:23:00 adr: 1 control: 0 mode: -1
track:   9 lba:     22535 (    90140) 05:02:35 adr: 1 control: 0 mode: -1
track:  10 lba:     26116 (   104464) 05:50:16 adr: 1 control: 0 mode: -1
track:  11 lba:     29306 (   117224) 06:32:56 adr: 1 control: 0 mode: -1
track:  12 lba:     32775 (   131100) 07:19:00 adr: 1 control: 0 mode: -1
track:  13 lba:     35374 (   141496) 07:53:49 adr: 1 control: 0 mode: -1
track:  14 lba:     38843 (   155372) 08:39:68 adr: 1 control: 0 mode: -1
track:  15 lba:     42089 (   168356) 09:23:14 adr: 1 control: 0 mode: -1
track:  16 lba:     45029 (   180116) 10:02:29 adr: 1 control: 0 mode: -1
track:  17 lba:     48205 (   192820) 10:44:55 adr: 1 control: 0 mode: -1
track:  18 lba:     51089 (   204356) 11:23:14 adr: 1 control: 0 mode: -1
track:  19 lba:     53687 (   214748) 11:57:62 adr: 1 control: 0 mode: -1
track:  20 lba:     57331 (   229324) 12:46:31 adr: 1 control: 0 mode: -1
track:  21 lba:     60625 (   242500) 13:30:25 adr: 1 control: 0 mode: -1
track:  22 lba:     63419 (   253676) 14:07:44 adr: 1 control: 0 mode: -1
track:  23 lba:     65773 (   263092) 14:38:73 adr: 1 control: 0 mode: -1
track:  24 lba:     69319 (   277276) 15:26:19 adr: 1 control: 0 mode: -1
track:  25 lba:     71827 (   287308) 15:59:52 adr: 1 control: 0 mode: -1
track:  26 lba:     74927 (   299708) 16:41:02 adr: 1 control: 0 mode: -1
track:  27 lba:     78744 (   314976) 17:31:69 adr: 1 control: 0 mode: -1
track:  28 lba:     82053 (   328212) 18:16:03 adr: 1 control: 0 mode: -1
track:  29 lba:     84846 (   339384) 18:53:21 adr: 1 control: 0 mode: -1
track:  30 lba:     87911 (   351644) 19:34:11 adr: 1 control: 0 mode: -1
track:  31 lba:     91290 (   365160) 20:19:15 adr: 1 control: 0 mode: -1
track:  32 lba:     94181 (   376724) 20:57:56 adr: 1 control: 0 mode: -1
track:  33 lba:     96932 (   387728) 21:34:32 adr: 1 control: 0 mode: -1
track:  34 lba:     99851 (   399404) 22:13:26 adr: 1 control: 0 mode: -1
track:  35 lba:    103278 (   413112) 22:59:03 adr: 1 control: 0 mode: -1
track:  36 lba:    106051 (   424204) 23:36:01 adr: 1 control: 0 mode: -1
track:  37 lba:    108976 (   435904) 24:15:01 adr: 1 control: 0 mode: -1
track:  38 lba:    111937 (   447748) 24:54:37 adr: 1 control: 0 mode: -1
track:  39 lba:    114946 (   459784) 25:34:46 adr: 1 control: 0 mode: -1
track:  40 lba:    117858 (   471432) 26:13:33 adr: 1 control: 0 mode: -1
track:  41 lba:    120679 (   482716) 26:51:04 adr: 1 control: 0 mode: -1
track:  42 lba:    123619 (   494476) 27:30:19 adr: 1 control: 0 mode: -1
track:  43 lba:    126844 (   507376) 28:13:19 adr: 1 control: 0 mode: -1
track:  44 lba:    129923 (   519692) 28:54:23 adr: 1 control: 0 mode: -1
track:  45 lba:    132884 (   531536) 29:33:59 adr: 1 control: 0 mode: -1
track:  46 lba:    135663 (   542652) 30:10:63 adr: 1 control: 0 mode: -1
track:  47 lba:    138568 (   554272) 30:49:43 adr: 1 control: 0 mode: -1
track:  48 lba:    140797 (   563188) 31:19:22 adr: 1 control: 0 mode: -1
track:  49 lba:    143242 (   572968) 31:51:67 adr: 1 control: 0 mode: -1
track:  50 lba:    146112 (   584448) 32:30:12 adr: 1 control: 0 mode: -1
track:  51 lba:    149686 (   598744) 33:17:61 adr: 1 control: 0 mode: -1
track:  52 lba:    152054 (   608216) 33:49:29 adr: 1 control: 0 mode: -1
track:  53 lba:    154931 (   619724) 34:27:56 adr: 1 control: 0 mode: -1
track:  54 lba:    157306 (   629224) 34:59:31 adr: 1 control: 0 mode: -1
track:  55 lba:    160204 (   640816) 35:38:04 adr: 1 control: 0 mode: -1
track:  56 lba:    163569 (   654276) 36:22:69 adr: 1 control: 0 mode: -1
track:  57 lba:    166724 (   666896) 37:04:74 adr: 1 control: 0 mode: -1
track:  58 lba:    169894 (   679576) 37:47:19 adr: 1 control: 0 mode: -1
track:  59 lba:    172764 (   691056) 38:25:39 adr: 1 control: 0 mode: -1
track:  60 lba:    176226 (   704904) 39:11:51 adr: 1 control: 0 mode: -1
track:  61 lba:    180099 (   720396) 40:03:24 adr: 1 control: 0 mode: -1
track:  62 lba:    184362 (   737448) 41:00:12 adr: 1 control: 0 mode: -1
track:  63 lba:    187149 (   748596) 41:37:24 adr: 1 control: 0 mode: -1
track:  64 lba:    190395 (   761580) 42:20:45 adr: 1 control: 0 mode: -1
track:  65 lba:    193564 (   774256) 43:02:64 adr: 1 control: 0 mode: -1
track:  66 lba:    197486 (   789944) 43:55:11 adr: 1 control: 0 mode: -1
track:  67 lba:    200823 (   803292) 44:39:48 adr: 1 control: 0 mode: -1
track:  68 lba:    204236 (   816944) 45:25:11 adr: 1 control: 0 mode: -1
track:  69 lba:    207406 (   829624) 46:07:31 adr: 1 control: 0 mode: -1
track:  70 lba:    211314 (   845256) 46:59:39 adr: 1 control: 0 mode: -1
track:  71 lba:    214267 (   857068) 47:38:67 adr: 1 control: 0 mode: -1
track:  72 lba:    216852 (   867408) 48:13:27 adr: 1 control: 0 mode: -1
track:  73 lba:    220342 (   881368) 48:59:67 adr: 1 control: 0 mode: -1
track:  74 lba:    223811 (   895244) 49:46:11 adr: 1 control: 0 mode: -1
track:  75 lba:    227217 (   908868) 50:31:42 adr: 1 control: 0 mode: -1
track:  76 lba:    230289 (   921156) 51:12:39 adr: 1 control: 0 mode: -1
track:  77 lba:    233159 (   932636) 51:50:59 adr: 1 control: 0 mode: -1
track:  78 lba:    236356 (   945424) 52:33:31 adr: 1 control: 0 mode: -1
track:  79 lba:    239644 (   958576) 53:17:19 adr: 1 control: 0 mode: -1
track:  80 lba:    243887 (   975548) 54:13:62 adr: 1 control: 0 mode: -1
track:  81 lba:    246067 (   984268) 54:42:67 adr: 1 control: 0 mode: -1
track:  82 lba:    248812 (   995248) 55:19:37 adr: 1 control: 0 mode: -1
track:  83 lba:    251305 (  1005220) 55:52:55 adr: 1 control: 0 mode: -1
track:  84 lba:    253528 (  1014112) 56:22:28 adr: 1 control: 0 mode: -1
track:  85 lba:    257136 (  1028544) 57:10:36 adr: 1 control: 0 mode: -1
track:  86 lba:    260117 (  1040468) 57:50:17 adr: 1 control: 0 mode: -1
track:  87 lba:    264241 (  1056964) 58:45:16 adr: 1 control: 0 mode: -1
track:  88 lba:    269306 (  1077224) 59:52:56 adr: 1 control: 0 mode: -1
track:  89 lba:    273053 (  1092212) 60:42:53 adr: 1 control: 0 mode: -1
track:  90 lba:    275763 (  1103052) 61:18:63 adr: 1 control: 0 mode: -1
track:  91 lba:    279002 (  1116008) 62:02:02 adr: 1 control: 0 mode: -1
track:  92 lba:    282311 (  1129244) 62:46:11 adr: 1 control: 0 mode: -1
track:  93 lba:    285878 (  1143512) 63:33:53 adr: 1 control: 0 mode: -1
track:  94 lba:    289026 (  1156104) 64:15:51 adr: 1 control: 0 mode: -1
track:  95 lba:    292363 (  1169452) 65:00:13 adr: 1 control: 0 mode: -1
track:  96 lba:    295811 (  1183244) 65:46:11 adr: 1 control: 0 mode: -1
track:  97 lba:    299559 (  1198236) 66:36:09 adr: 1 control: 0 mode: -1
track:  98 lba:    302310 (  1209240) 67:12:60 adr: 1 control: 0 mode: -1
track:  99 lba:    304094 (  1216376) 67:36:44 adr: 1 control: 0 mode: -1
track:lout lba:    305850 (  1223400) 68:00:00 adr: 1 control: 0 mode: -1
